/* XPM */
static char *_8_1_6_16_28_43[] = {
/* columns rows colors chars-per-pixel */
"32 32 231 2 ",
"   c #FF7919",
".  c #FF7B1C",
"X  c #FF7D20",
"o  c #FF7F24",
"O  c #FF8228",
"+  c #FF8229",
"@  c #FF832A",
"#  c #FF842C",
"$  c #FF852D",
"%  c #FF852E",
"&  c #FF852F",
"*  c #FF862F",
"=  c #FF8630",
"-  c #FF8731",
";  c #FF8732",
":  c #FF8832",
">  c #FF8833",
",  c #FF8934",
"<  c #FF8935",
"1  c #FF8A36",
"2  c #FF8A37",
"3  c #FF8B38",
"4  c #FF8B3A",
"5  c #FF8C3A",
"6  c #FF8C3B",
"7  c #FF8D3B",
"8  c #FF8D3C",
"9  c #FF8E3D",
"0  c #FF8E3E",
"q  c #FF8F3E",
"w  c #FF8F3F",
"e  c #FF9040",
"r  c #FF9041",
"t  c #FF9142",
"y  c #FF9143",
"u  c #FF9244",
"i  c #FF9245",
"p  c #FF9345",
"a  c #FF9346",
"s  c #FF9447",
"d  c #FF9448",
"f  c #FF9549",
"g  c #FF954A",
"h  c #FF954B",
"j  c #FF964A",
"k  c #FF964B",
"l  c #FF964C",
"z  c #FF974D",
"x  c #FF984E",
"c  c #FF984F",
"v  c #FF9A51",
"b  c #FF9A52",
"n  c #FF9A53",
"m  c #FF9B53",
"M  c #FF9B54",
"N  c #FF9C55",
"B  c #FF9C56",
"V  c #FF9D57",
"C  c #FF9E58",
"Z  c #FF9E59",
"A  c #FFA05C",
"S  c #FFA05D",
"D  c #FFA15E",
"F  c #FFA15F",
"G  c #FFA260",
"H  c #FFA361",
"J  c #FFA362",
"K  c #FFA463",
"L  c #FFA464",
"P  c #FFA565",
"I  c #FFA667",
"U  c #FFA768",
"Y  c #FFA769",
"T  c #FFA86A",
"R  c #FFA86B",
"E  c #FFA96B",
"W  c #FFA96C",
"Q  c #FFAA6D",
"!  c #FFAA6E",
"~  c #FFAB6E",
"^  c #FFAB6F",
"/  c #FFAC70",
"(  c #FFAC71",
")  c #FFAC72",
"_  c #FFAD72",
"`  c #FFAE74",
"'  c #FFAE75",
"]  c #FFAF75",
"[  c #FFAF76",
"{  c #FFB076",
"}  c #FFB077",
"|  c #FFB078",
" . c #FFB179",
".. c #FFB27B",
"X. c #FFB27C",
"o. c #FFB37C",
"O. c #FFB37D",
"+. c #FFB47E",
"@. c #FFB47F",
"#. c #FFB580",
"$. c #FFB581",
"%. c #FFB683",
"&. c #FFB784",
"*. c #FFB885",
"=. c #FFB886",
"-. c #FFB986",
";. c #FFB987",
":. c #FFBA88",
">. c #FFBB8A",
",. c #FFBB8B",
"<. c #FFBC8D",
"1. c #FFBD8D",
"2. c #FFBD8E",
"3. c #FFBE90",
"4. c #FFBF91",
"5. c #FFBF92",
"6. c #FFC194",
"7. c #FFC195",
"8. c #FFC296",
"9. c #FFC297",
"0. c #FFC397",
"q. c #FFC398",
"w. c #FFC399",
"e. c #FFC49A",
"r. c #FFC49B",
"t. c #FFC59B",
"y. c #FFC59C",
"u. c #FFC69D",
"i. c #FFC69E",
"p. c #FFC79F",
"a. c #FFC7A0",
"s. c #FFC9A2",
"d. c #FFC9A3",
"f. c #FFCAA4",
"g. c #FFCBA5",
"h. c #FFCBA6",
"j. c #FFCCA7",
"k. c #FFCCA8",
"l. c #FFCEAB",
"z. c #FFCFAC",
"x. c #FFCFAD",
"c. c #FFCFAE",
"v. c #FFD0AF",
"b. c #FFD1AF",
"n. c #FFD0B0",
"m. c #FFD1B0",
"M. c #FFD2B2",
"N. c #FFD2B3",
"B. c #FFD3B3",
"V. c #FFD3B4",
"C. c #FFD4B5",
"Z. c #FFD4B6",
"A. c #FFD5B7",
"S. c #FFD6B9",
"D. c #FFD7BA",
"F. c #FFD8BC",
"G. c #FFD8BD",
"H. c #FFD9BD",
"J. c #FFD9BE",
"K. c #FFDABF",
"L. c #FFDAC0",
"P. c #FFDBC1",
"I. c #FFDBC2",
"U. c #FFDCC2",
"Y. c #FFDCC3",
"T. c #FFDCC4",
"R. c #FFDDC4",
"E. c #FFDDC5",
"W. c #FFDEC6",
"Q. c #FFDEC7",
"!. c #FFDFC7",
"~. c #FFDFC8",
"^. c #FFDFC9",
"/. c #FFE0C9",
"(. c #FFE0CA",
"). c #FFE0CB",
"_. c #FFE1CB",
"`. c #FFE1CC",
"'. c #FFE2CD",
"]. c #FFE2CE",
"[. c #FFE3CE",
"{. c #FFE3CF",
"}. c #FFE3D0",
"|. c #FFE4D0",
" X c #FFE4D1",
".X c #FFE5D3",
"XX c #FFE6D4",
"oX c #FFE6D5",
"OX c #FFE7D5",
"+X c #FFE7D6",
"@X c #FFE7D7",
"#X c #FFE8D7",
"$X c #FFE8D8",
"%X c #FFE9D9",
"&X c #FFEADB",
"*X c #FFEBDC",
"=X c #FFEBDD",
"-X c #FFEBDE",
";X c #FFECDE",
":X c #FFEDDF",
">X c #FFEDE0",
",X c #FFEEE2",
"<X c #FFEFE3",
"1X c #FFEFE4",
"2X c #FFF0E5",
"3X c #FFF1E6",
"4X c #FFF1E7",
"5X c #FFF1E8",
"6X c #FFF2E9",
"7X c #FFF3EB",
"8X c #FFF4EC",
"9X c #FFF5ED",
"0X c #FFF5EE",
"qX c #FFF6EF",
"wX c #FFF6F0",
"eX c #FFF7F1",
"rX c #FFF7F2",
"tX c #FFF8F2",
"yX c #FFF8F3",
"uX c #FFF9F4",
"iX c #FFF9F5",
"pX c #FFFAF6",
"aX c #FFFAF7",
"sX c #FFFBF8",
"dX c #FFFBF9",
"fX c #FFFCFA",
"gX c #FFFDFB",
"hX c #FFFDFC",
"jX c #FFFEFD",
"kX c #FFFFFE",
"lX c white",
/* pixels */
"lXlXlXlXlXlXlXlXlXlXlXlXlXlXlXlXlXlXlXlXlXlXlXlXlXlXlXlXlXlXlXlX",
"lXlXlXlXlXlXlXlXlXlXlXsXXXg. .S L <.(.jXlXjXlXlXlXlXlXlXlXlXlXlX",
"lXlXlXlXlXlXlX8XD.4.o.o.0.~.yXrXC.L 5 D H.2XoXdXlXlXlXlXlXlXlXlX",
"lXlXlXlXlX8Xi.) ' $.#.E g 5 l j.lXlXL.z 5 %. Xw.`.lXlXlXlXlXlXlX",
"lXlXlXkX,Xx.^.hXlXlXlXlXdX(.' 5 K 5XlX7XT 5 ^ ,X' u.lXlXlXlXlXlX",
"lXlXlXjX8XlXlX2X(.L.].6XlXlXlXL.i M 8XlXyXL 5  .aXD :.lXlXlXlXlX",
"lXlXlXlXlXV.P q , > < t ( R.lXlX;Xa ^ kXlX1Xd 5 v.eXt 5.lXlXlXlX",
"lXlXlXuX+.3 * 9 C P V 6 * 3 0.jXlXE.5 '.lXlXt.5 x hXS.5 (.lXlXlX",
"lXlXiXR , 7 9.>X2X:X3X-X3.3 < =.lXlX..' lXlX0Xd 5 A.lXH b pXlXlX",
"lXlX:.< p OX*X] g r k O.,X`.w 1 l.lX&XN iXlXlX$.5 | lXS.5 k.lXlX",
"lX#X4 1 |.(.9 = e.p._ . q +XU.> f qXlX_ =XlXlXB.5 B jX8Xw n sXlX",
"lX3.- o.tX9 A ~.2XF.[.2.% z sXQ : N.lXe.oXlXlX}.5 a wXlXD 5 (.lX",
"lXD = I.c.# * n.^.  | gXy @ J.M.% *.lXZ.,XlXlX$X5 a qXlX} 5 8.lX",
"lXf , +X,.& % d.,X:.{.f.; $ t.).- ' lX[.yXlXlX X5 v sXlX@.5 [ lX",
"lXj :  X5.% # f.@XA 1.%Xx + s.T.=  .lXuXkXlXlXS.5 / lXlX .5 I lX",
"lXk & f./.# 3 G.}., ~ lXF @ +X6.* w.lXlXlXlXlX;.5 l.lXkXJ 5 P lX",
"lXk < b uXU M b.>X}.Q.[ O o.wXd 2 .XlXlXlXlXrXf d qXlX0Xa 5 _ lX",
"lXk 5 * &.yX! o P Y k X  .uX{ = _ kXlXlXlXlXr.5 v.lXlXH.5 5 5.lX",
"lXk 5 5 * ..2XW.=.` ,.`.,X( & f ,XlXlXlXlXoX5 $.lXlXlXW 5 5 Y.lX",
"lXk 5 5 5 & h a.`.#X(.e.p * u E.lXlXlXlX2Xz / sXlXlX!.5 5 f eXlX",
"lXk 5 5 5 5 1 & ; < ; & 2 ! $XlXlXlXkXP.G r.jXlXlX6Xn 5 5 6.lXlX",
"lXk 5 5 5 x 6 5 5 e ` 7.].lXlXlXkX4XC.s.,XlXlXlX3XH 5 5 c eXwXlX",
"lXg 5 5 5 $.k 5 5 r ;XlXlXlXlXlXkXyXsXlXlXlXlXL.v 5 5 8 !.lXY.lX",
"lXV 5 5 5 d.-.5 5 5 E jXkX+XoXhXlXlXlXlX0XK.) 5 5 5 8 B.lXz.].lX",
"lX@.5 5 5 d.1X0 5 5 5 5.lX9X1.Z ^ #.X.U g 5 5 5 5 m !.lXC.O.jXlX",
"lXS.5 5 5 t.lX1.5 5 5 5 f.lXlXM.V 5 5 5 5 5 5 k >.wXlXA.y *XlXlX",
"lXaXS 5 5 t.lXaXR 5 5 5 5 #.3XlXlX%Xm.q.6.h.(.aXlX2X$.5 S.lXlXlX",
"lXlX#Xi 5 t.lXlXeXQ 5 5 5 5 s 1. XfXlXlXlXlXyXW.$.9 5 B.lXlXlXlX",
"lXlXlX[.k 4.lXlXlXsX1.6 5 5 5 5 5 x P / Q S a 5 5 B _.lXlXlXlXlX",
"lXlXlXlX<X{.lXlXlXlXlX'.) 8 5 5 5 5 5 5 5 5 5 c y.yXlXlXlXlXlXlX",
"lXlXlXlXlXlXlXlXlXlXlXlXlX$Xi./ V g f x H &.D.wXlXlXlXlXlXlXlXlX",
"lXlXlXlXlXlXlXlXlXlXlXlXlXlXlXlXlXlXlXlXlXlXlXlXlXlXlXlXlXlXlXlX"
};
