/* XPM */
static char *_8_1_6_16_30_26[] = {
/* columns rows colors chars-per-pixel */
"128 128 46 1 ",
"  c #FF7817",
". c #FF7818",
"X c #FF7F23",
"o c #FF8026",
"O c #FF852D",
"+ c #FF8731",
"@ c #FF8935",
"# c #FF8C3A",
"$ c #FF8F40",
"% c #FF9244",
"& c #FF964B",
"* c #FF984E",
"= c #FF9B54",
"- c #FF9E5A",
"; c #FFA15D",
": c #FFA464",
"> c #FFA768",
", c #FFA96C",
"< c #FFAE74",
"1 c #FFB077",
"2 c #FFB27C",
"3 c #FFB682",
"4 c #FFB886",
"5 c #FFBB8B",
"6 c #FFBF91",
"7 c #FFC196",
"8 c #FFC59C",
"9 c #FFC89F",
"0 c #FFC9A3",
"q c #FFCDAA",
"w c #FFD0AF",
"e c #FFD3B3",
"r c #FFD6B9",
"t c #FFD9BD",
"y c #FFDDC4",
"u c #FFDFC8",
"i c #FFE1CC",
"p c #FFE5D3",
"a c #FFE8D7",
"s c #FFEADB",
"d c #FFEEE2",
"f c #FFF0E6",
"g c #FFF3EB",
"h c #FFF7F1",
"j c #FFF9F5",
"k c #FFFFFF",
/* pixels */
"kkkkkkkkkkkkkkkkkkkkkkkkkkkkkkkkkkkkkkkkkkkkkkkkkkkkkkkkkkkkkkkkkkkkkkkkkkkkkkkkkkkkkkkkkkkkkkkkkkkkkkkkkkkkkkkkkkkkkkkkkkkkkkkk",
"kkkkkkkkkkkkkkkkkkkkkkkkkkkkkkkkkkkkkkkkkkkkkkkkkkkkkkkkkkkkkkkkkkkkkkkkkkkkkkkkkkkkkkkkkkkkkkkkkkkkkkkkkkkkkkkkkkkkkkkkkkkkkkkk",
"kkkkkkkkkkkkkkkkkkkkkkkkkkkkkkkkkkkkkkkkkkkkkkkkkkkkkkkkkkkkkkkkkkkkkkkkkkkkkkkkkkkkkkkkkkkkkkkkkkkkkkkkkkkkkkkkkkkkkkkkkkkkkkkk",
"kkkkkkkkkkkkkkkkkkkkkkkkkkkkkkkkkkkkkkkkkkkkkkkkkkkkkkkkkkkkkkkkkkkkkkkkkkkkkkkkkkkkkkkkkkkkkkkkkkkkkkkkkkkkkkkkkkkkkkkkkkkkkkkk",
"kkkkkkkkkkkkkkkkkkkkkkkkkkkkkkkkkkkkkkkkkkkkkkkkkkgiq5<:=*&&&&==,28rajkkkkkkkkkkkkkkkkkkkkkkkkkkkkkkkkkkkkkkkkkkkkkkkkkkkkkkkkkk",
"kkkkkkkkkkkkkkkkkkkkkkkkkkkkkkkkkkkkkkkkkkkkkkjp82;&%################=2edkkkkkkkkkkkkkkkkkkkkkkkkkkkkkkkkkkkkkkkkkkkkkkkkkkkkkkk",
"kkkkkkkkkkkkkkkkkkkkkkkkkkkkkkkkkkkkkkkkkkkkkkhuiaddfdaut83:&###########%,qgkkkkkkkkkkkkkkkkkkkkkkkkkkkkkkkkkkkkkkkkkkkkkkkkkkkk",
"kkkkkkkkkkkkkkkkkkkkkkkkkkkkkkkkkkkkkkkkkkkkkkkkkkkkkkkkkkkkdu7>%##########*4akkkkkhjkkkkkkkkkkkkkkkkkkkkkkkkkkkkkkkkkkkkkkkkkkk",
"kkkkkkkkkkkkkkkkkkkkkkkkkkkkkkkkkkkkkkkkkkkjjjkjkkkkkkkkkkkkkkkka0>##########%2ikkkgtedkkkkkkkkkkkkkkkkkkkkkkkkkkkkkkkkkkkkkkkkk",
"kkkkkkkkkkkkkkkkkkkkkkkkkkkkkkkkkkkkkgiw63,::;::<58rajkkkkkkkkkkkkji3&##########3skkju45akkkkkkkkkkkkkkkkkkkkkkkkkkkkkkkkkkkkkkk",
"kkkkkkkkkkkkkkkkkkkkkkkkkkkkkkkkkjp8,=##############%;4rfkkkkkkkkkkkks6%#########%8jkkjq-2akkkkkkkkkkkkkkkkkkkkkkkkkkkkkkkkkkkkk",
"kkkkkkkkkkkkkkkkkkkkkkkkkkkkkkkd0:######################*3yjkkkkkkkkkkks4##########:ikkkf<#4skkkkkkkkkkkkkkkkkkkkkkkkkkkkkkkkkkk",
"kkkkkkkkkkkkkkkkkkkkkkkkkkkkka5&###########################:whkkkkkkkkkkki>#########%8kkkk0#%6gkkkkkkkkkkkkkkkkkkkkkkkkkkkkkkkkk",
"kkkkkkkkkkkkkkkkkkkkkkkkkkkf5%########&&&*&&%################;rjkkkkkkkkkkj8%#########2gkkki*#=rkkkkkkkkkkkkkkkkkkkkkkkkkkkkkkkk",
"kkkkkkkkkkkkkkkkkkkkkkkkkjq*####*,5qtaddffddaue7<=#############<akkkkkkkkkkkp;#########;skkkd>##2dkkkkkkkkkkkkkkkkkkkkkkkkkkkkkk",
"kkkkkkkkkkkkkkkkkkkkkkkkd<###;5yfkkkkkkkkkkkkkkkkjp0,%##########%qjkkkkkkkkkkg3#########=ikkkg<##*ekkkkkkkkkkkkkkkkkkkkkkkkkkkkk",
"kkkkkkkkkkkkkkkkkkkkkkkt&#*5ujkkkkkkkkkkkkkkkkkkkkkkka0:##########2gkkkkkkkkkkk7#########&ikkkj2###5jkkkkkkkkkkkkkkkkkkkkkkkkkkk",
"kkkkkkkkkkkkkkkkkkkkkk8#*0dkkkkkkkkkkkkkkkkkkkkkkkkkkkkjr>#########-akkkkkkkkkkkq#########%ikkkj2###>skkkkkkkkkkkkkkkkkkkkkkkkkk",
"kkkkkkkkkkkkkkkkkkkkj4%8gkkkkkkkkkkkkkkkkkkkkkkkkkkkkkkkkky:########=ikkkkkkkkkkke#########&akkkj3###=ikkkkkkkkkkkkkkkkkkkkkkkkk",
"kkkkkkkkkkkkkkkkkkkj3<dkkkkkkkkkkkkkkkkkkkkkkkkkkkkkkkkkkkkjq&#######%ukkkkkkkkkkkr#########=gkkkj<###%rkkkkkkkkkkkkkkkkkkkkkkkk",
"kkkkkkkkkkkkkkkkkkh7wkkkkkkkkkkkkkkkkkkkkkkkkkkkkkkkkkkkkkkkkd<#######%pkkkkkkkkkkkq#########,jkkkj,####qkkkkkkkkkkkkkkkkkkkkkkk",
"kkkkkkkkkkkkkkkkkkdskkkkkkkkkkkkkkkkkkkkkkkkkkkkkkkkkkkkkkkkkkk0#######*skkkkkkkkkkk8#########5kkkkg;####8kkkkkkkkkkkkkkkkkkkkkk",
"kkkkkkkkkkkkkkkkkkkkkkkkkkkkkkkkkjgsureerypgjkkkkkkkkkkkkkkkkkkku=######;gkkkkkkkkkkk2#########rkkkks*####0kkkkkkkkkkkkkkkkkkkkk",
"kkkkkkkkkkkkkkkkkkkkkkkkkkkkkja02:*########%-<8ygkkkkkkkkkkkkkkkka;######3kkkkkkkkkkkg-########*dkkkku%####qkkkkkkkkkkkkkkkkkkkk",
"kkkkkkkkkkkkkkkkkkkkkkkkkkka7-##################=2tjkkkkkkkkkkkkkkf>######wkkkkkkkkkkkp%######@#2kkkkk0#####tkkkkkkkkkkkkkkkkkkk",
"kkkkkkkkkkkkkkkkkkkkkkkkjt,########################-0gkkkkkkkkkkkkkg:#####&dkkkkkkkkkkk0#########rkkkkk3####%pkkkkkkkkkkkkkkkkkk",
"kkkkkkkkkkkkkkkkkkkkkkkt>############################*8jkkkkkkkkkkkkd-#####2kkkkkkkkkkkj>########-jkkkkg-####=dkkkkkkkkkkkkkkkkk",
"kkkkkkkkkkkkkkkkkkkkks<################################-tkkkkkkkkkkkka*#####ukkkkkkkkkkkp$########0kkkkku$####,jkkkkkkkkkkkkkkkk",
"kkkkkkkkkkkkkkkkkkkkq%###################################4hkkkkkkkkkkkt#####>kkkkkkkkkkkk5########=gkkkkk5#####8kkkkkkkkkkkkkkkk",
"kkkkkkkkkkkkkkkkkkh2################@@+@+@@###############;akkkkkkkkkkk7#####ykkkkkkkkkkkd&########0kkkkkg=#####ukkkkkkkkkkkkkkk",
"kkkkkkkkkkkkkkkkkd>############@+O+#%*===*%@OO@############%rkkkkkkkkkkj:####<kkkkkkkkkkkk7########=jkkkkkr#####;gkkkkkkkkkkkkkk",
"kkkkkkkkkkkkkkkka=###########@O#-4widhjjhgsy02*+O@###########ekkkkkkkkkki$####akkkkkkkkkkkf&########rkkkkkj,#####6kkkkkkkkkkkkkk",
"kkkkkkkkkkkkkkks=##########+O&5ijkkkkkkkkkkkkkgy2$O@##########wkkkkkkkkkk5####7kkkkkkkkkkkk5########,kkkkkku#####%ikkkkkkkkkkkkk",
"kkkkkkkkkkkkkkf=#########@O&8gkkkkkkkkkkkkkkkkkkks5#O##########tkkkkkkkkkg*###;jkkkkkkkkkkkp########%skkkkkk<#####<jkkkkkkkkkkkk",
"kkkkkkkkkkkkkj,#########++4fkkkkkkkkkkkkkkkkkkkkkkka<O@########&pkkkkkkkkk0####pkkkkkkkkkkkk<######@#0kkkkkku######rkkkkkkkkkkkk",
"kkkkkkkkkkkkk5#########O*ykkkkkkkjae62,<<28rskkkkkkkjq#+########;gkkkkkkkkg*###8kkkkkkkkkkkkw########,kkkkkkj>#####;jkkkkkkkkkkk",
"kkkkkkkkkkkkt########@O>fkkkkkka7-#OOOO+OOO+%>qfkkkkkki&O########4kkkkkkkkk7###,kkkkkkkkkkkkf&#######%fkkkkkkq######ekkkkkkkkkkk",
"kkkkkkkkkkkg*########O<jkkkkka2#O+##########@++%7gkkkkks=O########tkkkkkkkks%##=gkkkkkkkkkkkk<########rkkkkkkd%#####;jkkkkkkkkkk",
"kkkkkkkkkkk5########O<jkkkkj8%O@###@@###@@#####@O*rkkkkkd=+#######=hkkkkkkkk<@#%akkkkkkkkkkkk0########6kkkkkkk<######tkkkkkkkkkk",
"kkkkkkkkkka########O:hkkkkf,O@#####%%###$%#######+O5jkkkka$@#######8kkkkkkkke###tkkkkkkkkkkkka########>kkkkkkk0######,kkkkkkkkkk",
"kkkkkkkkkk2#######+%dkkkka=O#####+,dd4O=af0+######@O,jkkkky+#######*fkkkkkkkf&##0kkkkkkkkkkkkj=#######*hkkkkkkp%######pkkkkkkkkk",
"kkkkkkkkkp########+tkkkka&+######+2kk7X-kkr+########O,jkkkk5O#######8kkkkkkkk,##5kkkkkkkkkkkkk<########akkkkkkj=######5kkkkkkkkk",
"kkkkkkkkk4#######O2kkkkg-O#######O1kk6X-jkr+#########O2kkkkh=O######=hkkkkkkk8##4kkkkkkkkkkkkk7########tkkkkkkk2######*gkkkkkkkk",
"kkkkkkkkg&######+%dkkkk<O###++OO+X,kk5 *jkeX+@########O0kkkkrO#######rkkkkkkku##2kkkkkkkkkkkkkr########qkkkkkkk0#######rkkkkkkkk",
"kkkkkkkke#######O5kkkkqO###@408008rkki7wjka3>%+@######@#akkkj>+######<kkkkkkkg&#<kkkkkkkkkkkkki########8kkkkkkku#######2kkkkkkkk",
"kkkkkkkk2######@%skkkg*+###+akkkkkkkkkkkkkkkkfq%+######O,kkkkeO######*fkkkkkkj:#<kkkkkkkkkkkkkf%#######5kkkkkkkd&######&gkkkkkkk",
"kkkkkkkg*######O<kkkk7O####@edgkkkkkhdfggjkkkkka&@######@ukkkg*@######tkkkkkkk<#2kkkkkkkkkkkkkg*######@3kkkkkkkj-#######tkkkkkkk",
"kkkkkkki#######+rkkkg*+######$$qkkkk4#%%%*<pkkkke+######O<kkkk4O######6kkkkkkk6#4kkkkkkkkkkkkkh=#######2kkkkkkkk<#######5kkkkkkk",
"kkkkkkk0######@%dkkkrO#######@O<kkkk2O+@@@O$dkkkg&@#####@%dkkkr+######,kkkkkkk0#5kkkkkkkkkkkkkj;#######2kkkkkkkk4#######:jkkkkkk",
"kkkkkkk4######+>kkkk2O########+<kkkk2O#####X0kkkj-@######Oqkkkd%@#####=gkkkkkkq#qkkkkkkkkkkkkkj:#######2kkkkkkkk8#######%dkkkkkk",
"kkkkkkk,######O5kkkh=+########+<kkkk2O####@O8kkkj-@######+2kkkj:+#####$skkkkkke#ykkkkkkkkkkkkkj:#######4kkkkkkkkq########tkkkkkk",
"kkkkkkk-######O0kkka#@########+<kkkk2O####@Oekkks$@######+;jkkk<O######ikkkkkkr#akkkkkkkkkkkkkj;#######8kkkkkkkkw########8kkkkkk",
"kkkkkkk*######+rkkky@#########+1kkkk2.+OOOO<jkkk4O#######@&gkkk5O######rkkkkkke*hkkkkkkkkkkkkkh=#######qkkkkkkkkr##@#####2kkkkkk",
"kkkkkkk*######@ukkkeO#########+<kkkk0><<<4ejkkh5+########@#akkk8O######ekkkkkkq,kkkkkkkkkkkkkkg*#######rkkkkkkkkt########>kkkkkk",
"kkkkkkk&#####@#ikkk0O#########+<kkkkkkkkkkkkke&X###########pkkk0O######wkkkkkk88kkkkkkkkkkkkkkd%#######akkkkkkkkt########-jkkkkk",
"kkkkkkk*######@ikkkqO#########+<kkkkkkkkkkkkkdt,O########@#ikkk0O######ekkkkkk8ikkkkkkkkkkkkkki#######=gkkkkkkkkr########&gkkkkk",
"kkkkkkk&######@ykkkeO#########+<kkkk8>,,,29akkkk7+#######@#akkk8O######rkkkkkkqhkkkkkkkkkkkkkkr#######,jkkkkkkkkw#########akkkkk",
"kkkkkkk*######Oekkkt+#########+<kkkk1XO++OO#ekkkk<+######@&gkkk3O####@#ykkkkkjdkkkkkkkkkkkkkkk7#######5kkkkkkkkkq#########akkkkk",
"kkkkkkk&######O8kkka#@########+<kkkk2+#####O&gkkku@######+-jkkj,+######akkkkkkkkkkkkkkkkkkkkkk2#######tkkkkkkkkk8#########akkkkk",
"kkkkkkk*######+2kkkh=O########+<kkkk2O######@ikkkg%@#####O2kkkj=+#####%dkkkkkkkkkkkkkkkkkkkkkg=######%fkkkkkkkkk3#########pkkkkk",
"kkkkkkk&######+=jkkk2O########+1kkkk2O######@ikkkg*@#####+qkkkp#######:jkkkkkkkkkkkkkkkkkkkkki#######,kkkkkkkkkk,#########ikkkkk",
"kkkkkkk&#######@pkkkrO########O<kkkk2O#####+%gkkkf%@####@%skkkqO######2kkkkkkkkkkkkkkkkkkkkkk0#######qkkkkkkkkkj=#########pkkkkk",
"kkkkkkk*#######O8kkkg*+#####++o2kkkk2X+++OOO0kkkky+#####O<kkkk,+######0kkkkkkkkkkkkkkkkkkkkkk,######%dkkkkkkkkks&#########akkkkk",
"kkkkkkk*#######+=jkkk7O#####=:,ykkkk7=;;:>3ukkkkj<+####@+ukkka#@######pkkkkkkkkkkkkkkkkkkkkks%######2kkkkkkkkkky#########%akkkkk",
"kkkkkkk&########+ykkkf&@###@ukkkkkkkkjkjkkkkkkkj4+#####+,kkkk6O######;jkkkkkkkkkkkkkkkkkkkkk8#######ukkkkkkkkkk0#########%gkkkkk",
"kkkkkkk*########O>jkkkqO@##@ikkkkkkkkkkkkkkjgp0-+#####@#akkkd%@######7kkkkkkkkkkkkkkkkkkkkkj:######>jkkkkkkkkkk3#########-jkkkkk",
"kkkkkkk&#########+rkkkj<O###><<1<<8kke>5jku=*#O+######+8kkkk5O#######akkkkkkkkkkkkkkkkkkkkky#######tkkkkkkkkkkj-#########>jkkkkk",
"kkkkkkk*#########+=hkkkf*O##+OOOOX<kk5 =jkeO+########O<jkkki#@######<kkkkkkkkkkkkkkkkkkkkkk,######>jkkkkkkkkkka%#########2kkkkkk",
"kkkkkkk&##########O4kkkka&O######+1kk7X;kkr+########O:hkkkj-O#######tkkkkkkkkkkkkkkkkkkkkku#######ukkkkkkkkkkk0##########8kkkkkk",
"kkkkkkk*###########Oekkkkp*O#####+<gg5o=fgq+######@O>gkkkk3O#######>jkkkkkkkkkkkkkkkkkkkkk<######3kkkkkkkkkkkk,##########rkkkkkk",
"kkkkkkk&##@########@#ukkkks>O@###@#&%%##%&%######@O2jkkkk8O########ukkkkkkkkkkkkkkkkkkkkkr######*fkkkkkkkkkkka%##########skkkkkk",
"kkkkkkk*############@#ikkkkj7#O@###@@###@@@####@O%ekkkkkq+@#######2kkkkkkkkkkkkkkkkkkkkkh-######rkkkkkkkkkkkk8##########-jkkkkkk",
"kkkkkkk*#############+#ukkkkkp<@O@###########+O%5fkkkkk9+@#######*dkkkkkkkkkkkkkkkkkkkkk7######5kkkkkkkkkkkkh=##########3kkkkkkk",
"kkkkkkk*#@############+#qjkkkkkp5*@OOO+++OOO#;8dkkkkkj4O#########rkkkkkkkkkkkkkkkkkkkkku#####@>jkkkkkkkkkkkke###########ekkkkkkk",
"kkkkkkk&###############@O1fkkkkkkhpq4<::,15eajkkkkkkp;O#########5kkkkkkkkkkkkkkkkkkkkkg=#####=dkkkkkkkkkkkkj:##########%skkkkkkk",
"kkkkkkk&#################O%qjkkkkkkkkkkkkkkkkkkkkkf5#O#########<jkkkkkkkkkkkkkkkkkkkkj<#####%pkkkkkkkkkkkkkr###########,kkkkkkkk",
"kkkkkkk*##################+O=qgkkkkkkkkkkkkkkkkka7%O@#########:gkkkkkkkkkkkkkkkkkkkkk5#####&ikkkkkkkkkkkkkj;###########0kkkkkkkk",
"kkkkkkk&####################OO&3rdkkkkkkkkkkjaq<$O@##########;dkkkkkkkkkkkkkkkkkkkkk8#####*ikkkkkkkkkkkkkk0###########%skkkkkkkk",
"kkkkkkk*######################@O+&:28eerrq72;%OO############>fkkkkkkkkkkkkkkkkkkkkk0#####=akkkkkkkkkkkkkkd%###########<kkkkkkkkk",
"kkkkkkk&#########################@+OO+++OOOO+@#############2gkkkkkkkkkkkkkkkkkkkkk8#####<fkkkkkkkkkkkkkkj<############tkkkkkkkkk",
"kkkkkkk&###############################@##################0kkkkkkkkkkkkkkkkkkkkkj5#####7jkkkkkkkkkkkkkkk0############-jkkkkkkkkk",
"kkkkkkk*################################################:ikkkkkkkkkkkkkkkkkkkkkg2####;ukkkkkkkkkkkkkkkki%#####@######qkkkkkkkkkk",
"kkkkkkk&##############################################&0jkkkkkkkkkkkkkkkkkkkkku=###%7hkkkkkkkkkkkkkkkkd=############-hkkkkkkkkkk",
"kkkkkkk*############################################%6dkkkkkkkkkkkkkkkkkkkkkj7####3skkkkkkkkkkkkkkkkkg:#############qkkkkkkkkkkk",
"kkkkkkk&###############%&############@############;0fkkkkkkkkkkkkkkkkkkkkkkt-##%3akkkkkkkkkkkkkkkkkkj<#############;jkkkkkdkkkkk",
"kkkkkkk&#@#############-<#####################$:6ijkkkkkkkkkkkkkkkkkkkkkki,##;8dkkkkkkkkkkkkkkkkkkkj1##############ykkkkkjekkkkk",
"kkkkkkk*###############-9###############%><38ydjkkkkkkkkkkkkkkkkkkkkkkhr,%-7ijkkkkkkkkkkkkkkkkkkkkh<#############@3kkkkkkiqkkkkk",
"kkkkkkk*###############=i%##############&skkkkkkkkkkkkkkkkkkkkkkkkkkjy65edjkkkkkkkkkkkkkkkkkkkkkks>##############=fkkkkkk5ikkkkk",
"kkkkkkk&###############*f,###############8kkkkkkkkkkkkkkkkkkkkkkkkkkjgjkkkkkkkkkkkkkkkkkkkkkkkkki=###############rkkkkkka,jkkkkk",
"kkkkkkk*###############&j0###############*gkkkkkkkkkkkkkkkkkkkkkkkkkkkkkkkkkkkkkkkkkkkkkkkkkkkj0################5kkkkkkk25kkkkkk",
"kkkkkkk*###############&ga################8kkkkkkkkkkkkkkkkkkkkkkkkkkkkkkkkkkkkkkkkkkkkkkkkkks<################,jkkkkkkp$akkkkkk",
"kkkkkkk=############@##*gk>###############&dkkkkkkkkkkkkkkkkkkkkkkkkkkkkkkkkkkkkkkkkkkkkkkkj0%################=skkkkkkj:;jkkkkkk",
"kkkkkkk=###############&gkq################5kkkkkkkkkkkkkkkkkkkkkkkkkkkkkkkkkkkkkkkkkkkkkjr:#################%pkkkkkkkq#qkkkkkkk",
"kkkkkkk:###############&gkg*################ikkkkkkkkdukkkkkkkkkkkkkkkkkkkkkkkkkkkkkkkkjr>##################%ukkkkkkka%&gkkkkkkk",
"kkkkkkk<###############*gkk7################;jkkkkkkkj6>rgkkkkkkkkkkkkkkkkkkkkkkkkkkka8;###################%ykkkkkkkj:#6kkkkkkkk",
"kkkkkkk4###############&fkkf%################6kkkkkkkkk6#=3tdkkkkkkkkkkkkkkkkkkkkjaq,%####################&ukkkkkkkk4#%dkkkkkkkk",
"kkkkkkkq###############&gkkk5#####@###########tkkkkkkkkk0###*,7ragjkkkkkkkkjjfiq4;%######################=akkkkkkkk0##5kkkkkkkkk",
"kkkkkkki###############&fkkkf%################%akkkkkkkkkt&#####%*;,2345422,=&##########################<fkkkkkkkke##%dkkkkkkkkk",
"kkkkkkkg*##############&gkkkk8#################;gkkkkkkkkka:###########################################8jkkkkkkkkr%##8kkkkkkkkkk",
"kkkkkkkk<##############&fkkkkh-#################,gkkkkkkkkkj6###########################@############;ikkkkkkkkkr###=hkkkkkkkkkk",
"kkkkkkkkw##############&gkkkkkt##################,jkkkkkkkkkki>####################################%8jkkkkkkkkkq####tkkkkkkkkkkk",
"kkkkkkkkg%#############&gkkkkkk3##################,gkkkkkkkkkkjw=################################%5dkkkkkkkkkj7####2kkkkkkkkkkkk",
"kkkkkkkkk4#######@#####*fkkkkkkg=##################>fkkkkkkkkkkkjq;############################=7skkkkkkkkkkg<####=gkkkkkkkkkkkk",
"kkkkkkkkka#############&gkkkkkkku###################=ikkkkkkkkkkkkju2*###########@##########%<egkkkkkkkkkkku=#####ukkkkkkkkkkkkk",
"kkkkkkkkkk2############&fkkkkkkkk8####################qkkkkkkkkkkkkkkgt5>%##############%:4rdkkkkkkkkkkkkh6######8kkkkkkkkkkkkkk",
"kkkkkkkkkka%###########&gkkkkkkkkk3####################2fkkkkkkkkkkkkkkkjguq62<,>>,127qugjkkkkkkkkkkkkkky-######2kkkkkkkkkkkkkkk",
"kkkkkkkkkkk6###########&fkkkkkkkkkh>####################=ekkkkkkkkkkkkkkkkkkkkkkjkkkkkkkkkkkkkkkkkkkkka1#######>jkkkkkkkkkkkkkkk",
"kkkkkkkkkkkg-##########&gkkkkkkkkkkg;#####################,ikkkkkkkkkkkkkkkkkkkkkkkkkkkkkkkkkkkkkkkka5########-gkkkkkkkkkkkkkkkk",
"kkkkkkkkkkkki$#########&gkkkkkkkkkkkd-######################2ikkkkkkkkkkkkkkkkkkkkkkkkkkkkkkkkkkkki4%########=skkkkkkkkkkkkkkkkk",
"kkkkkkkkkkkkk0#########&gkkkkkkkkkkkks=#######################<yjkkkkkkkkkkkkkkkkkkkkkkkkkkkkkkfe,##########=akkkkkkkkkkkkkkkkkk",
"kkkkkkkkkkkkkk4########&fkkkkkkkkkkkkkd;########################-7ijkkkkkkkkkkkkkkkkkkkkkkkkdr2*###########;dkkkkkkkkkkkkkkkkkkk",
"kkkkkkkkkkkkkkj<#######&gkkkkkkkkkkkkkkf,##########################;5rajkkkkkkkkkkkkkkkjay8,&#############,gkkkkkkkkkkkkkkkkkkkk",
"kkkkkkkkkkkkkkkj<######*fkkkkkkkkkkkkkkkh3############################%-<50ruiipiiur05<;%################3hkkkkkkkkkkkkkkkkkkkkk",
"kkkkkkkkkkkkkkkkj2#####&gkkkkkkkkkkkkkkkkk0###################################%#########################0kkkkkkkkkkkkkkkkkkkkkkk",
"kkkkkkkkkkkkkkkkkj5####&fkkkkkkkkkkkkkkkkkku-#########################################################-ikkkkkkkkkkkkkkkkkkkkkkkk",
"kkkkkkkkkkkkkkkkkkkw%##*gkkkkkkkkkkkkkkkkkkkg5#######################################################5gkkkkkkkkkkkkkkkkkkkkkkkkk",
"kkkkkkkkkkkkkkkkkkkka,#%gkkkkkkkkkkkkkkkkkkkkky;#######################@###########################;ykkkkkkkkkkkkkkkkkkkkkkkkkkk",
"kkkkkkkkkkkkkkkkkkkkkj0-fkkkkkkkkkkkkkkkkkkkkkkj0&###############################################*8hkkkkkkkkkkkkkkkkkkkkkkkkkkkk",
"kkkkkkkkkkkkkkkkkkkkkkkgjkkkkkkkkkkkkkkkkkkkkkkkkf7&###########################################&6dkkkkkkkkkkkkkkkkkkkkkkkkkkkkkk",
"kkkkkkkkkkkkkkkkkkkkkkkkkkkkkkkkkkkkkkkkkkkkkkkkkkkd8=#######################################=7fkkkkkkkkkkkkkkkkkkkkkkkkkkkkkkkk",
"kkkkkkkkkkkkkkkkkkkkkkkkkkkkkkkkkkkkkkkkkkkkkkkkkkkkkge,%##################################,egkkkkkkkkkkkkkkkkkkkkkkkkkkkkkkkkkk",
"kkkkkkkkkkkkkkkkkkkkkkkkkkkkkkkkkkkkkkkkkkkkkkkkkkkkkkkka8,%###########################$>0skkkkkkkkkkkkkkkkkkkkkkkkkkkkkkkkkkkkk",
"kkkkkkkkkkkkkkkkkkkkkkkkkkkkkkkkkkkkkkkkkkkkkkkkkkkkkkkkkkksw3;%###################%;4eskkkkkkkkkkkkkkkkkkkkkkkkkkkkkkkkkkkkkkkk",
"kkkkkkkkkkkkkkkkkkkkkkkkkkkkkkkkkkkkkkkkkkkkkkkkkkkkkkkkkkkkkkjduq5<>=**&&&&*=><5qudjkkkkkkkkkkkkkkkkkkkkkkkkkkkkkkkkkkkkkkkkkkk",
"kkkkkkkkkkkkkkkkkkkkkkkkkkkkkkkkkkkkkkkkkkkkkkkkkkkkkkkkkkkkkkkkkkkkkkkkkkkkkkkkkkkkkkkkkkkkkkkkkkkkkkkkkkkkkkkkkkkkkkkkkkkkkkkk",
"kkkkkkkkkkkkkkkkkkkkkkkkkkkkkkkkkkkkkkkkkkkkkkkkkkkkkkkkkkkkkkkkkkkkkkkkkkkkkkkkkkkkkkkkkkkkkkkkkkkkkkkkkkkkkkkkkkkkkkkkkkkkkkkk",
"kkkkkkkkkkkkkkkkkkkkkkkkkkkkkkkkkkkkkkkkkkkkkkkkkkkkkkkkkkkkkkkkkkkkkkkkkkkkkkkkkkkkkkkkkkkkkkkkkkkkkkkkkkkkkkkkkkkkkkkkkkkkkkkk",
"kkkkkkkkkkkkkkkkkkkkkkkkkkkkkkkkkkkkkkkkkkkkkkkkkkkkkkkkkkkkkkkkkkkkkkkkkkkkkkkkkkkkkkkkkkkkkkkkkkkkkkkkkkkkkkkkkkkkkkkkkkkkkkkk"
};
