/* XPM */
static char *_8_1_6_16_27_40[] = {
/* columns rows colors chars-per-pixel */
"16 16 127 2 ",
"   c #FF8A37",
".  c #FF8A38",
"X  c #FF8C3A",
"o  c #FF8C3B",
"O  c #FF9142",
"+  c #FF9143",
"@  c #FF9244",
"#  c #FF9346",
"$  c #FF9448",
"%  c #FF954A",
"&  c #FF964B",
"*  c #FF964C",
"=  c #FF984E",
"-  c #FF9A51",
";  c #FF9B53",
":  c #FF9D57",
">  c #FF9F59",
",  c #FF9F5B",
"<  c #FFA05D",
"1  c #FFA15E",
"2  c #FFA25F",
"3  c #FFA260",
"4  c #FFA361",
"5  c #FFA463",
"6  c #FFA464",
"7  c #FFA768",
"8  c #FFA86B",
"9  c #FFAA6D",
"0  c #FFAC71",
"q  c #FFAD72",
"w  c #FFAD73",
"e  c #FFAE74",
"r  c #FFAF75",
"t  c #FFAF76",
"y  c #FFB078",
"u  c #FFB179",
"i  c #FFB17A",
"p  c #FFB27B",
"a  c #FFB27C",
"s  c #FFB37C",
"d  c #FFB47F",
"f  c #FFB580",
"g  c #FFB682",
"h  c #FFB783",
"j  c #FFB885",
"k  c #FFB986",
"l  c #FFB987",
"z  c #FFBB89",
"x  c #FFBB8A",
"c  c #FFBD8D",
"v  c #FFBD8F",
"b  c #FFBE90",
"n  c #FFBF90",
"m  c #FFBE91",
"M  c #FFBF92",
"N  c #FFC093",
"B  c #FFC194",
"V  c #FFC195",
"C  c #FFC296",
"Z  c #FFC297",
"A  c #FFC398",
"S  c #FFC399",
"D  c #FFC499",
"F  c #FFC49A",
"G  c #FFC59C",
"H  c #FFC69D",
"J  c #FFC79E",
"K  c #FFC79F",
"L  c #FFC8A1",
"P  c #FFC8A2",
"I  c #FFC9A2",
"U  c #FFC9A3",
"Y  c #FFCAA4",
"T  c #FFCBA5",
"R  c #FFCBA6",
"E  c #FFCCA8",
"W  c #FFCEAB",
"Q  c #FFCFAC",
"!  c #FFD0AE",
"~  c #FFD0AF",
"^  c #FFD1AF",
"/  c #FFD1B0",
"(  c #FFD2B2",
")  c #FFD2B3",
"_  c #FFD3B3",
"`  c #FFD3B4",
"'  c #FFD4B6",
"]  c #FFD5B7",
"[  c #FFD8BC",
"{  c #FFD9BE",
"}  c #FFDBC2",
"|  c #FFDCC3",
" . c #FFDDC4",
".. c #FFDDC6",
"X. c #FFDEC7",
"o. c #FFDFC7",
"O. c #FFE1CB",
"+. c #FFE1CC",
"@. c #FFE2CD",
"#. c #FFE3CF",
"$. c #FFE3D0",
"%. c #FFE4D1",
"&. c #FFE5D2",
"*. c #FFE6D4",
"=. c #FFE9DA",
"-. c #FFEADB",
";. c #FFECDE",
":. c #FFECDF",
">. c #FFEDDF",
",. c #FFEDE0",
"<. c #FFEEE2",
"1. c #FFEFE4",
"2. c #FFF1E7",
"3. c #FFF2E9",
"4. c #FFF3EA",
"5. c #FFF5ED",
"6. c #FFF7F1",
"7. c #FFF7F2",
"8. c #FFF8F3",
"9. c #FFF9F4",
"0. c #FFFAF6",
"q. c #FFFAF7",
"w. c #FFFBF9",
"e. c #FFFCFA",
"r. c #FFFDFC",
"t. c #FFFEFD",
"y. c white",
/* pixels */
"y.y.y.y.y.y.y.y.y.y.y.y.y.y.y.y.",
"y.y.y.8.+./ U ~ G Z :.0.y.y.y.y.",
"y.y.9.&...| ) g ' ] 4 E o.y.y.y.",
"y.y.4.M e r E 3.k *.[ 5 L ] y.y.",
"y.2.2 j N C d e 1.Z y.7 W h <.y.",
"y.f n z v r k l U } q.P j Q b y.",
"y.2 S & ( Y - H w :.r.( p O.6 y.",
"y.> S * / K 3 D 0 r.y.B J O.- y.",
"y.# j b m i c a R y.6.8 4.G : y.",
"y.*   u N B q e w.9.N { e.% x y.",
"y.& o . o t _ y.t.@.;.e.y O -.y.",
"y.= $ f X A y.%.#.*.! ; @ ' %.y.",
"y.s X &.< X T $.x 7 1 k  .F =.y.",
"y.<.1 >.,., X 7 Q ` ^ V 9 X.y.y.",
"y.y.5.7.y.8.I 2 + & 2 b 2.y.y.y.",
"y.y.y.y.y.y.y.y.y.y.y.y.y.y.y.y."
};
