/* XPM */
static char *_8_1_6_16_29_36[] = {
/* columns rows colors chars-per-pixel */
"64 64 44 1 ",
"  c #FF7E23",
". c #FF8127",
"X c #FF852E",
"o c #FF8731",
"O c #FF8935",
"+ c #FF8C3A",
"@ c #FF8F40",
"# c #FF9143",
"$ c #FF964B",
"% c #FF984E",
"& c #FF9A53",
"* c #FF9E5A",
"= c #FFA15E",
"- c #FFA462",
"; c #FFA768",
": c #FFA96C",
"> c #FFAD73",
", c #FFB077",
"< c #FFB27B",
"1 c #FFB682",
"2 c #FFB886",
"3 c #FFBC8C",
"4 c #FFBF91",
"5 c #FFC195",
"6 c #FFC59B",
"7 c #FFC7A0",
"8 c #FFC9A3",
"9 c #FFCEAB",
"0 c #FFD0AE",
"q c #FFD3B4",
"w c #FFD6B9",
"e c #FFD9BE",
"r c #FFDCC3",
"t c #FFDFC8",
"y c #FFE1CC",
"u c #FFE5D3",
"i c #FFE8D7",
"p c #FFEADB",
"a c #FFEEE2",
"s c #FFF0E5",
"d c #FFF4EC",
"f c #FFF7F1",
"g c #FFF9F5",
"h c #FFFFFF",
/* pixels */
"hhhhhhhhhhhhhhhhhhhhhhhhhhhhhhhhhhhhhhhhhhhhhhhhhhhhhhhhhhhhhhhh",
"hhhhhhhhhhhhhhhhhhhhhhhhhhhhhhhhhhhhhhhhhhhhhhhhhhhhhhhhhhhhhhhh",
"hhhhhhhhhhhhhhhhhhhhhhhaw6>*$+##*>5rshhhhhhhhhhhhhhhhhhhhhhhhhhh",
"hhhhhhhhhhhhhhhhhhhhhhhssssiy92*++++$<eghhghhhhhhhhhhhhhhhhhhhhh",
"hhhhhhhhhhhhhhhhhhayq99qyahhhhhhi6*++++*9gfeyghhhhhhhhhhhhhhhhhh",
"hhhhhhhhhhhhhhgt2*++++++++&<wfhhhhgw-++++-yhr2whhhhhhhhhhhhhhhhh",
"hhhhhhhhhhhhg0*+++#$$#+++++++&6shhhhg9$++++5hs<-yhhhhhhhhhhhhhhh",
"hhhhhhhhhhht*+:6tpsdfsir6:#++++$0hhhhha:++++:dh6+3fhhhhhhhhhhhhh",
"hhhhhhhhhg5=8shhhhhhhhhhhha9-++++<dhhhhg5++++*ahq+&uhhhhhhhhhhhh",
"hhhhhhhhd60ghhhhhhhhhhhhhhhhgq&+++=shhhhh7++++&shr+#qhhhhhhhhhhh",
"hhhhhhhhyshhhhhhhhhhhhhhhhhhhhf3+++*shhhhh6++++-ghe++6hhhhhhhhhh",
"hhhhhhhhhhhhhhpw61<<27eshhhhhhhhw#++-ghhhhh2++++1hh0++5hhhhhhhhh",
"hhhhhhhhhhhs6-+++++++++#:9dhhhhhhu$++2hhhhhg-++++whh5++6hhhhhhhh",
"hhhhhhhhhd5#++++++++++++++&8ghhhhhu#++thhhhhp#+++&fhh:++qhhhhhhh",
"hhhhhhhhr&++++++XXXXXXO+++++-ihhhhhe++-hhhhhh5++++6hha#+#ihhhhhh",
"hhhhhhh7+++++XO&,5775<&OoO+++#qhhhhh3++rhhhhhf%+++$fhh8++=ghhhhh",
"hhhhhh5++++o+<yghhhhhhgy1+o++++qhhhhg&+>hhhhhh6++++qhhg*++5hhhhh",
"hhhhh9++++X-ihhhatqqrahhhp:X++++thhhhq+#shhhhhs#+++:hhhq++#ahhhh",
"hhhhu++++X3hhgq-+XX.X+-9ghh4o+++$shhhg*+rhhhhhh>+++#shhf$++1hhhh",
"hhhg-+++X5hhy=XX+#+##OO.&thh6o+++1hhhh6+6hhhhhh0++++rhhh2+++phhh",
"hhhq+++X<hhw+o+X2s@wro++o+qhh2X+++uhhhp+<hhhhhhi++++5hhhe+++3hhh",
"hhg=++O$dhtOOOO.4h+yi.XO+Oorhf%O++<hhhh&:hhhhhhg&+++<hhha#++$fhh",
"hhy+++X8hf$o+qiyahighq1+++O#dhqX++#shhh<-hhhhhhh-+++:hhhh*+++whh",
"hh5+++#fh6X++2qhht66qhhwO++X5hf$O++qhhh6-hhhhhhh<+++-hhhh<+++<hh",
"hh:++X,hg&O++X+fh2 X 2hh*o+O%fh<o++3hhh9>hhhhhhh<+++-hhhh4+++&gh",
"hh&++X7hi++++O$fh2.o >hh&O++Oyh9X++:hhhq5hhhhhhh1+++-hhhh7++++ih",
"hh$++oqhwX++++$dh7&*>id6O+++oqhro++-hhhqwhhhhhhh>+++<hhhh9++++eh",
"hh$++oeh0X+++O$fhhgghhq+o+++X7hto++=ghheahhhhhhh-+++6hhhh9++++8h",
"hh$++oqhwX+++O$dh6$*-whs&O++X0heX++-hhhaghhhhhhg&+++ehhhh7++++4h",
"hh$++X6hiO+++O$fh3.Oo+sh8X++Oyh7X++>hhhhhhhhhhhi+++#shhhh4++++3h",
"hh$++o:hg&O++o#fh2.Oo+shqX+O$fh>X++5hhhhhhhhhhh9+++>hhhhh>++++3h",
"hh$++++sh6.++$>gh6$&*qhh<X+X5hs#O++rhhhhhhhhhhh:+++qhhhhh*++++4h",
"hh$+++X4hd$O+yhhhggghhi2O+O#sh6X++$fhhhhhhhhhha+++&ghhhhs#++++7h",
"hh$+++++phtOO*=&9h-ip$+X+OOeha@O++3hhhhhhhhhhh3+++0hhhhhe+++++wh",
"hh$++++X-ghq+.O.1s+qro++oO0hh-o++#phhhhhhhhhha#++-ghhhhh1+++++ih",
"hh$+++++X>ghu&Xo+$+#@+oX&thh<X+++6hhhhhhhhhhh<++#ihhhhhd$++++%gh",
"hh$++++++X:shg9=+XX.X+*7ghd>X+++-ghhhhhhhhhhq+++0hhhhhh9+++++>hh",
"hh$+++++++X$qghharq9eahhhq$X+++$phhhhhhhhhhi#++5hhhhhhf&+++++qhh",
"hh$++++++++OX=7phhhhhha8-oO+++#uhhhhhhhhhha&++6hhhhhhh6+++++#shh",
"hh$++++++++++Oo+&:,<:&+Xo++++=ihhhhhhhhhhp&+#qhhhhhhhi#+++++1hhh",
"hh$++++++++++++OOoXooOO+++++2dhhhhhhhhhht#+-ihhhhhhhf*++++++ihhh",
"hh$+++++++++++++++++++++++:yhhhhhhhhhhf2+&9hhhhhhhhh>++++++<hhhh",
"hh$+++++++$$++++++++++#=4uhhhhhhhhhhd9*-qghhhhhhhhg<++++++#ahhsh",
"hh$+++++++=>+++++++$qtaghhhhhhhhhhfr67ihhhhhhhhhhd>+++++++9hhgwh",
"hh$+++++++*9++++++++uhhhhhhhhhhhhhgfhhhhhhhhhhhhy*+++++++<hhhreh",
"hh$+++++++&s%+++++++-hhhhhhhhhhhhhhhhhhhhhhhhhd5++++++++=dhhg<dh",
"hh&+++++++%h3++++++++0hhhhddhhhhhhhhhhhhhhhhs8&++++++++&ahhh42hh",
"hh-+++++++&ha#+++++++#phhhd53ughhhhhhhhhhsr1$+++++++++-ahhhr+ahh",
"hh<+++++++%gh3++++++++=ghhhg1+%>59werq82;$+++++++++++<dhhhu+4hhh",
"hhq+++++++&ghs$++++++++>ghhhhq$++++++++++++++++++++$9hhhhy#%fhhh",
"hhs#++++++%ghhq+++++++++>ghhhhs3#++++++++++++++++#2shhhhq#+ehhhh",
"hhh1++++++&fhhh1+++++++++-ahhhhha6*++++++++++++-6ahhhhg4++3hhhhh",
"hhhp#+++++&fhhhg-+++++++++$qhhhhhhgi91:=&&->2qighhhhhr=++:ghhhhh",
"hhhh6+++++&ghhhhs=++++++++++>ihhhhhhhhhhghhhhhhhhhhy>+++-fhhhhhh",
"hhhhh>++++%ghhhhhs=+++++++++++1yghhhhhhhhhhhhhhhdq>++++-shhhhhhh",
"hhhhhd-+++&ghhhhhhs;++++++++++++-5ysghhhhhhhfi0<%+++++>dhhhhhhhh",
"hhhhhhd;++&fhhhhhhhg2++++++++++++++#=>2222<-%++++++++5ghhhhhhhhh",
"hhhhhhhg1+$ghhhhhhhhhe&++++++++++++++++++++++++++++*rhhhhhhhhhhh",
"hhhhhhhhhw:fhhhhhhhhhhd5#++++++++++++++++++++++++#5fhhhhhhhhhhhh",
"hhhhhhhhhhghhhhhhhhhhhhha5$++++++++++++++++++++&5shhhhhhhhhhhhhh",
"hhhhhhhhhhhhhhhhhhhhhhhhhhdq>$++++++++++++++$,qfhhhhhhhhhhhhhhhh",
"hhhhhhhhhhhhhhhhhhhhhhhhhhhhhst6<-&$$$%&-<7tdhhhhhhhhhhhhhhhhhhh",
"hhhhhhhhhhhhhhhhhhhhhhhhhhhhhhhhhhhhhhhhhhhhhhhhhhhhhhhhhhhhhhhh",
"hhhhhhhhhhhhhhhhhhhhhhhhhhhhhhhhhhhhhhhhhhhhhhhhhhhhhhhhhhhhhhhh"
};
